<svg id="visual" viewBox="0 0 900 900" width="900" height="900" xmlns="http://www.w3.org/2000/svg" xmlns:xlink="http://www.w3.org/1999/xlink" version="1.1"><rect width="900" height="900" fill="#ffffff"></rect><g><g transform="translate(487 561)"><path d="M104.6 -36.7C118.6 9.1 101.3 62.4 64.1 89.7C26.9 117.1 -30.2 118.6 -67.7 91.7C-105.1 64.8 -123 9.5 -108.5 -37C-93.9 -83.6 -47 -121.4 -0.8 -121.1C45.3 -120.8 90.6 -82.5 104.6 -36.7Z" fill="#e2e8f0"></path></g><g transform="translate(7 808)"><path d="M65.6 -19.4C73.5 3.2 60.6 34.4 39.5 48.4C18.3 62.4 -11.1 59.1 -33.3 43.5C-55.5 28 -70.4 0.1 -63.7 -20.9C-56.9 -41.8 -28.5 -55.9 0.2 -56C28.8 -56.1 57.6 -42.1 65.6 -19.4Z" fill="#e2e8f0"></path></g><g transform="translate(48 250)"><path d="M94.9 -32.9C108.3 10.4 94.4 60.5 60.9 85.2C27.5 109.8 -25.5 108.9 -59.6 83.7C-93.7 58.5 -109 9.1 -95.9 -33.7C-82.8 -76.6 -41.4 -112.8 -0.3 -112.7C40.7 -112.6 81.5 -76.2 94.9 -32.9Z" fill="#e2e8f0"></path></g><g transform="translate(720 858)"><path d="M79.1 -23.4C91.3 11.8 82.2 56.2 52.3 79.7C22.4 103.3 -28.3 106 -58.7 83.3C-89.1 60.6 -99.3 12.5 -86.1 -24C-72.9 -60.5 -36.5 -85.5 -1.5 -85C33.5 -84.5 66.9 -58.6 79.1 -23.4Z" fill="#e2e8f0"></path></g><g transform="translate(887 264)"><path d="M97.9 -27C113.9 17.3 104.8 74.6 72.3 97.9C39.7 121.2 -16.4 110.5 -54.8 81.3C-93.1 52 -113.7 4.2 -101.6 -34.8C-89.5 -73.9 -44.8 -104.1 -1.9 -103.5C41 -102.9 81.9 -71.4 97.9 -27Z" fill="#e2e8f0"></path></g></g></svg>