<svg id="visual" viewBox="0 0 900 900" width="900" height="900" xmlns="http://www.w3.org/2000/svg" xmlns:xlink="http://www.w3.org/1999/xlink" version="1.1"><rect width="900" height="900" fill="#ffffff"></rect><g><g transform="translate(602 470)"><path d="M115.8 -42.6C130 5.9 107.4 61.4 67.6 89.5C27.8 117.6 -29.3 118.3 -69.4 90.4C-109.5 62.5 -132.6 5.9 -118.2 -42.9C-103.8 -91.7 -51.9 -132.9 -0.5 -132.7C50.8 -132.5 101.6 -91 115.8 -42.6Z" fill="#e2e8f0"></path></g><g transform="translate(122 341)"><path d="M104.9 -33.9C117.4 4.4 96.2 53.8 59.7 79.6C23.3 105.4 -28.3 107.7 -63.4 83.2C-98.5 58.7 -117 7.3 -103.7 -32.1C-90.4 -71.5 -45.2 -98.9 0.5 -99.1C46.2 -99.3 92.4 -72.1 104.9 -33.9Z" fill="#e2e8f0"></path></g><g transform="translate(255 827)"><path d="M67.4 -22.4C75.9 4.2 63.4 37.1 38.7 55.6C14.1 74 -22.8 78 -45.9 61.6C-69 45.2 -78.4 8.3 -68.5 -20.3C-58.6 -48.9 -29.3 -69.3 0.1 -69.3C29.5 -69.3 58.9 -49 67.4 -22.4Z" fill="#e2e8f0"></path></g><g transform="translate(849 787)"><path d="M88.6 -27.7C100.4 7.4 85.4 52.2 54.9 74C24.3 95.9 -21.8 94.7 -49.9 73.3C-78 51.8 -87.9 10 -76.6 -24.5C-65.3 -59 -32.6 -86.2 2.9 -87.2C38.4 -88.1 76.9 -62.8 88.6 -27.7Z" fill="#e2e8f0"></path></g></g></svg>